# xmcd CD database file
#
# Track frame offsets:
#	150
#	20769
#	40794
#	56645
#	75964
#	98354
#	114125
#	129835
#	149144
#	174076
#	197011
#	220911
#	243723
#	273512
#	294697
#
# Disc length: 4117 seconds
#
# Revision: 0
# Processed by: cddbd v1.5.2PL0 Copyright (c) Steve Scherf et al.
# Submitted via: CDex 1.51
#
DISCID=cf10130f
DTITLE=Various Artist - Jazz From Catalonia 2012
DYEAR=2012
DGENRE=Jazz
TTITLE0=David Pastor and Pere Fovend - El del Llasn
TTITLE1=Bernat Font Trio - Ulls ametella
TTITLE2=Phil Woods and Barcelona Jazz Orchestra - Rompin' at the Reno
TTITLE3=Susanna Sheimann and Ignasi Terranza Trio - P.S. I love you
TTITLE4=Marcel-li Bayer - LT
TTITLE5=Gonzalo del Val Trio - Espiritu F.H
TTITLE6=Joan Diaz - Diana
TTITLE7=Elisabet Raspall - Miral d'estiu Summer Mirror
TTITLE8=Jo Krause Quartet - Tones for Jones Bones
TTITLE9=David Mengual - El perro dejo de andar
TTITLE10=Jaume Llombart Sextet - Bajada
TTITLE11=Piccola Orchestra Gagarin - Corsicanskaya
TTITLE12=Sin Anestesia - Metadoloris Ultra
TTITLE13=Josep Tutusaus Champagne Sparkle - No va internet
TTITLE14=Marc Ayza - Untitled
EXTD=YEAR: 2012
EXTT0=
EXTT1=
EXTT2=
EXTT3=
EXTT4=
EXTT5=
EXTT6=
EXTT7=
EXTT8=
EXTT9=
EXTT10=
EXTT11=
EXTT12=
EXTT13=
EXTT14=
PLAYORDER=
